<svg width="240" height="240" viewBox="0 0 240 240" fill="none" xmlns="http://www.w3.org/2000/svg">
<path d="M35.96 35.88L49.095 184.73C49.64 190.915 53.945 196.13 59.915 197.835L113.13 213.04C117.62 214.325 122.375 214.325 126.865 213.04L180.08 197.835C186.05 196.13 190.355 190.92 190.9 184.73L204.035 35.88C204.555 30.03 199.95 25 194.08 25H45.92C40.05 25 35.445 30.03 35.96 35.88Z" fill="#2F3542"/>
<path d="M120 125V105H163L159.5 162.5L120 175.5V154.5L140.5 147.5L142 125H120ZM164.5 85L166 65H120V85H164.5Z" fill="white"/>
<path d="M120 154.5V175.5L80.5 162.5L78.5 135H98.5L99.5 147.5L120 154.5ZM95.5 85H120V65H74.5L78 125H120V105H97L95.5 85Z" fill="white"/>
</svg>
