<svg width="280" height="56" viewBox="0 0 280 56" fill="none" xmlns="http://www.w3.org/2000/svg">
<path d="M29.106 22.344L10.458 29.176L29.106 35.952V42.952L2.45 32.816V25.536L29.106 15.4V22.344Z" fill="white"/>
<path d="M63.658 28.56H71.946V44.464C69.818 46.0693 67.354 47.3013 64.554 48.16C61.754 49.0187 58.9353 49.448 56.098 49.448C52.0287 49.448 48.37 48.5893 45.122 46.872C41.874 45.1173 39.3167 42.7093 37.45 39.648C35.6207 36.5493 34.706 33.0587 34.706 29.176C34.706 25.2933 35.6207 21.8213 37.45 18.76C39.3167 15.6613 41.8927 13.2533 45.178 11.536C48.4633 9.78134 52.1593 8.90401 56.266 8.90401C59.7007 8.90401 62.818 9.48267 65.618 10.64C68.418 11.7973 70.77 13.4773 72.674 15.68L66.85 21.056C64.05 18.1067 60.6713 16.632 56.714 16.632C54.2127 16.632 51.9913 17.1547 50.05 18.2C48.1087 19.2453 46.5967 20.72 45.514 22.624C44.4313 24.528 43.89 26.712 43.89 29.176C43.89 31.6027 44.4313 33.768 45.514 35.672C46.5967 37.576 48.09 39.0693 49.994 40.152C51.9353 41.1973 54.138 41.72 56.602 41.72C59.2153 41.72 61.5673 41.16 63.658 40.04V28.56Z" fill="#2ED573"/>
<path d="M94.0931 49.224C90.9198 49.224 88.0638 48.5707 85.5251 47.264C83.0238 45.92 81.0638 44.072 79.6451 41.72C78.2265 39.368 77.5171 36.6987 77.5171 33.712C77.5171 30.7253 78.2265 28.056 79.6451 25.704C81.0638 23.352 83.0238 21.5227 85.5251 20.216C88.0638 18.872 90.9198 18.2 94.0931 18.2C97.2665 18.2 100.104 18.872 102.605 20.216C105.106 21.5227 107.066 23.352 108.485 25.704C109.904 28.056 110.613 30.7253 110.613 33.712C110.613 36.6987 109.904 39.368 108.485 41.72C107.066 44.072 105.106 45.92 102.605 47.264C100.104 48.5707 97.2665 49.224 94.0931 49.224ZM94.0931 42.056C96.3331 42.056 98.1625 41.3093 99.5811 39.816C101.037 38.2853 101.765 36.2507 101.765 33.712C101.765 31.1733 101.037 29.1573 99.5811 27.664C98.1625 26.1333 96.3331 25.368 94.0931 25.368C91.8531 25.368 90.0051 26.1333 88.5491 27.664C87.0931 29.1573 86.3651 31.1733 86.3651 33.712C86.3651 36.2507 87.0931 38.2853 88.5491 39.816C90.0051 41.3093 91.8531 42.056 94.0931 42.056Z" fill="#2ED573"/>
<path d="M117.068 9.57601H134.876C139.132 9.57601 142.884 10.3973 146.132 12.04C149.418 13.6453 151.956 15.9227 153.748 18.872C155.578 21.8213 156.492 25.256 156.492 29.176C156.492 33.096 155.578 36.5307 153.748 39.48C151.956 42.4293 149.418 44.7253 146.132 46.368C142.884 47.9733 139.132 48.776 134.876 48.776H117.068V9.57601ZM134.428 41.328C138.348 41.328 141.466 40.2453 143.78 38.08C146.132 35.8773 147.308 32.9093 147.308 29.176C147.308 25.4427 146.132 22.4933 143.78 20.328C141.466 18.1253 138.348 17.024 134.428 17.024H126.14V41.328H134.428Z" fill="#2ED573"/>
<path d="M192.23 33.824C192.23 33.936 192.174 34.72 192.062 36.176H169.27C169.681 38.0427 170.651 39.5173 172.182 40.6C173.713 41.6827 175.617 42.224 177.894 42.224C179.462 42.224 180.843 42 182.038 41.552C183.27 41.0667 184.409 40.32 185.454 39.312L190.102 44.352C187.265 47.6 183.121 49.224 177.67 49.224C174.273 49.224 171.267 48.5707 168.654 47.264C166.041 45.92 164.025 44.072 162.606 41.72C161.187 39.368 160.478 36.6987 160.478 33.712C160.478 30.7627 161.169 28.112 162.55 25.76C163.969 23.3707 165.891 21.5227 168.318 20.216C170.782 18.872 173.526 18.2 176.55 18.2C179.499 18.2 182.169 18.8347 184.558 20.104C186.947 21.3733 188.814 23.2027 190.158 25.592C191.539 27.944 192.23 30.688 192.23 33.824ZM176.606 24.808C174.627 24.808 172.966 25.368 171.622 26.488C170.278 27.608 169.457 29.1387 169.158 31.08H183.998C183.699 29.176 182.878 27.664 181.534 26.544C180.19 25.3867 178.547 24.808 176.606 24.808Z" fill="#2ED573"/>
<path d="M227.403 18.648L214.691 48.776H205.675L193.019 18.648H202.035L210.379 39.144L219.003 18.648H227.403Z" fill="#2ED573"/>
<path d="M243.433 1.75H251.217L232.737 54.502H224.953L243.433 1.75Z" fill="white"/>
<path d="M278.859 25.662V32.942L252.203 43.078V36.078L270.851 29.302L252.203 22.47V15.526L278.859 25.662Z" fill="white"/>
</svg>
