<svg width="152" height="336" viewBox="0 0 152 336" fill="none" xmlns="http://www.w3.org/2000/svg">
<rect x="17" y="17" width="110" height="138" rx="7" fill="#454B58"/>
<path d="M102.963 52.1938L72.9625 39.6938C72.6579 39.5654 72.3306 39.4992 72 39.4992C71.6694 39.4992 71.3421 39.5654 71.0375 39.6938L41.0375 52.1938C40.53 52.4055 40.1064 52.7786 39.8324 53.2555C39.5584 53.7323 39.4492 54.2861 39.5219 54.8313L44.5219 92.3313C44.5757 92.7358 44.7277 93.1211 44.9646 93.4534C45.2016 93.7856 45.5163 94.0549 45.8812 94.2375L70.8813 106.738C71.2286 106.911 71.6116 107.002 72 107.002C72.3884 107.002 72.7714 106.911 73.1188 106.738L98.1188 94.2375C98.4837 94.0549 98.7984 93.7856 99.0354 93.4534C99.2723 93.1211 99.4244 92.7358 99.4781 92.3313L104.478 54.8313C104.551 54.2861 104.442 53.7323 104.168 53.2555C103.894 52.7786 103.47 52.4055 102.963 52.1938ZM94.6969 90.3563L72 101.706L49.3031 90.3563L44.7313 56.0625L72 44.7094L99.2688 56.0625L94.6969 90.3563ZM69.8125 58.2875L57.3125 80.7875C57.1533 81.0748 57.0522 81.3906 57.015 81.7169C56.9778 82.0433 57.0053 82.3737 57.0958 82.6894C57.1864 83.0052 57.3382 83.3 57.5427 83.557C57.7471 83.814 58.0002 84.0283 58.2875 84.1875C58.5748 84.3467 58.8906 84.4478 59.2169 84.485C59.5433 84.5222 59.8737 84.4947 60.1894 84.4042C60.5052 84.3136 60.7999 84.1618 61.057 83.9573C61.314 83.7529 61.5283 83.4998 61.6875 83.2125L65.125 77H78.875L82.3125 83.2125C82.4717 83.4998 82.686 83.7529 82.943 83.9573C83.2001 84.1618 83.4949 84.3136 83.8106 84.4042C84.1263 84.4947 84.4568 84.5222 84.7831 84.485C85.1094 84.4478 85.4252 84.3467 85.7125 84.1875C85.9998 84.0283 86.2529 83.814 86.4573 83.557C86.6618 83.3 86.8136 83.0052 86.9042 82.6894C86.9947 82.3737 87.0222 82.0433 86.985 81.7169C86.9478 81.3906 86.8467 81.0748 86.6875 80.7875L74.1875 58.2875C73.9713 57.8968 73.6544 57.571 73.2697 57.3442C72.885 57.1174 72.4466 56.9978 72 56.9978C71.5534 56.9978 71.115 57.1174 70.7303 57.3442C70.3456 57.571 70.0287 57.8968 69.8125 58.2875ZM76.0844 72H67.9156L72 64.6469L76.0844 72Z" fill="#898E98"/>
<path d="M44.2592 134H42.0092L46.1058 122.364H48.7081L52.8104 134H50.5604L47.4524 124.75H47.3615L44.2592 134ZM44.3331 129.438H50.4695V131.131H44.3331V129.438ZM56.3089 128.886V134H54.2521V125.273H56.218V126.756H56.3203C56.5211 126.267 56.8411 125.879 57.2805 125.591C57.7237 125.303 58.2711 125.159 58.9226 125.159C59.5249 125.159 60.0495 125.288 60.4964 125.545C60.9472 125.803 61.2957 126.176 61.5419 126.665C61.7919 127.153 61.915 127.746 61.9112 128.443V134H59.8544V128.761C59.8544 128.178 59.7029 127.722 59.3999 127.392C59.1006 127.062 58.6858 126.898 58.1555 126.898C57.7957 126.898 57.4756 126.977 57.1953 127.136C56.9188 127.292 56.701 127.517 56.5419 127.812C56.3866 128.108 56.3089 128.466 56.3089 128.886ZM67.7976 137.455C67.0589 137.455 66.4245 137.354 65.8942 137.153C65.3639 136.956 64.9377 136.691 64.6158 136.358C64.2938 136.025 64.0703 135.655 63.9453 135.25L65.7976 134.801C65.8809 134.972 66.0021 135.14 66.1612 135.307C66.3203 135.477 66.5343 135.617 66.8033 135.727C67.076 135.841 67.4188 135.898 67.8317 135.898C68.415 135.898 68.898 135.756 69.2805 135.472C69.6631 135.191 69.8544 134.729 69.8544 134.085V132.432H69.7521C69.6461 132.644 69.4908 132.862 69.2862 133.085C69.0855 133.309 68.8184 133.496 68.4851 133.648C68.1555 133.799 67.7408 133.875 67.2408 133.875C66.5703 133.875 65.9624 133.718 65.4169 133.403C64.8752 133.085 64.4434 132.612 64.1214 131.983C63.8033 131.35 63.6442 130.559 63.6442 129.608C63.6442 128.65 63.8033 127.841 64.1214 127.182C64.4434 126.519 64.8771 126.017 65.4226 125.676C65.968 125.331 66.576 125.159 67.2464 125.159C67.7578 125.159 68.1783 125.246 68.5078 125.42C68.8411 125.591 69.1063 125.797 69.3033 126.04C69.5002 126.278 69.6499 126.504 69.7521 126.716H69.8658V125.273H71.8942V134.142C71.8942 134.888 71.7161 135.506 71.3601 135.994C71.004 136.483 70.5173 136.848 69.8999 137.091C69.2824 137.333 68.5817 137.455 67.7976 137.455ZM67.8146 132.261C68.2502 132.261 68.6214 132.155 68.9283 131.943C69.2351 131.731 69.468 131.426 69.6271 131.028C69.7862 130.631 69.8658 130.153 69.8658 129.597C69.8658 129.047 69.7862 128.566 69.6271 128.153C69.4718 127.741 69.2408 127.42 68.9339 127.193C68.6309 126.962 68.2578 126.847 67.8146 126.847C67.3563 126.847 66.9737 126.966 66.6669 127.205C66.3601 127.443 66.129 127.771 65.9737 128.188C65.8184 128.6 65.7408 129.07 65.7408 129.597C65.7408 130.131 65.8184 130.598 65.9737 131C66.1328 131.398 66.3658 131.708 66.6726 131.932C66.9832 132.152 67.3639 132.261 67.8146 132.261ZM79.5646 130.33V125.273H81.6214V134H79.6271V132.449H79.5362C79.3393 132.937 79.0154 133.337 78.5646 133.648C78.1177 133.958 77.5665 134.114 76.9112 134.114C76.3393 134.114 75.8336 133.987 75.3942 133.733C74.9586 133.475 74.6177 133.102 74.3714 132.614C74.1252 132.121 74.0021 131.527 74.0021 130.83V125.273H76.0589V130.511C76.0589 131.064 76.2105 131.504 76.5135 131.83C76.8165 132.155 77.2143 132.318 77.7067 132.318C78.0097 132.318 78.3033 132.244 78.5874 132.097C78.8714 131.949 79.1044 131.729 79.2862 131.438C79.4718 131.142 79.5646 130.773 79.5646 130.33ZM85.7933 122.364V134H83.7365V122.364H85.7933ZM90.4197 134.176C89.8667 134.176 89.3686 134.078 88.9254 133.881C88.486 133.68 88.1375 133.384 87.88 132.994C87.6262 132.604 87.4993 132.123 87.4993 131.551C87.4993 131.059 87.5902 130.652 87.772 130.33C87.9538 130.008 88.2019 129.75 88.5163 129.557C88.8307 129.364 89.1849 129.218 89.5788 129.119C89.9766 129.017 90.3875 128.943 90.8118 128.898C91.3232 128.845 91.7379 128.797 92.0561 128.756C92.3743 128.71 92.6054 128.642 92.7493 128.551C92.897 128.456 92.9709 128.311 92.9709 128.114V128.08C92.9709 127.652 92.844 127.32 92.5902 127.085C92.3364 126.85 91.9709 126.733 91.4936 126.733C90.9898 126.733 90.5902 126.843 90.2947 127.062C90.0031 127.282 89.8061 127.542 89.7038 127.841L87.7834 127.568C87.9349 127.038 88.1849 126.595 88.5334 126.239C88.8819 125.879 89.308 125.61 89.8118 125.432C90.3156 125.25 90.8724 125.159 91.4822 125.159C91.9027 125.159 92.3213 125.208 92.7379 125.307C93.1546 125.405 93.5353 125.568 93.88 125.795C94.2247 126.019 94.5012 126.324 94.7095 126.71C94.9216 127.097 95.0277 127.58 95.0277 128.159V134H93.0504V132.801H92.9822C92.8572 133.044 92.6811 133.271 92.4538 133.483C92.2304 133.691 91.9482 133.86 91.6072 133.989C91.2701 134.114 90.8743 134.176 90.4197 134.176ZM90.9538 132.665C91.3667 132.665 91.7247 132.583 92.0277 132.42C92.3307 132.254 92.5637 132.034 92.7266 131.761C92.8932 131.489 92.9766 131.191 92.9766 130.869V129.841C92.9122 129.894 92.8023 129.943 92.647 129.989C92.4955 130.034 92.325 130.074 92.1357 130.108C91.9463 130.142 91.7588 130.172 91.5732 130.199C91.3875 130.225 91.2266 130.248 91.0902 130.267C90.7834 130.309 90.5088 130.377 90.2663 130.472C90.0239 130.566 89.8326 130.699 89.6925 130.869C89.5523 131.036 89.4822 131.252 89.4822 131.517C89.4822 131.896 89.6205 132.182 89.897 132.375C90.1735 132.568 90.5258 132.665 90.9538 132.665ZM97.0959 134V125.273H99.0902V126.727H99.1811C99.3402 126.223 99.6129 125.835 99.9993 125.562C100.389 125.286 100.835 125.148 101.335 125.148C101.448 125.148 101.575 125.153 101.715 125.165C101.859 125.172 101.978 125.186 102.073 125.205V127.097C101.986 127.066 101.848 127.04 101.658 127.017C101.473 126.991 101.293 126.977 101.119 126.977C100.744 126.977 100.406 127.059 100.107 127.222C99.8118 127.381 99.5788 127.602 99.4084 127.886C99.2379 128.17 99.1527 128.498 99.1527 128.869V134H97.0959Z" fill="white"/>
<rect x="17" y="17" width="110" height="138" rx="7" stroke="#5C616E" stroke-width="2"/>
<rect x="17" y="173" width="118" height="146" rx="7" fill="#2F3542"/>
<path d="M110.059 210.213L77.0588 196.463C76.7236 196.322 76.3637 196.249 76 196.249C75.6363 196.249 75.2764 196.322 74.9413 196.463L41.9413 210.213C41.3829 210.446 40.917 210.857 40.6156 211.381C40.3142 211.905 40.1942 212.515 40.2741 213.114L45.7741 254.364C45.8332 254.809 46.0004 255.233 46.2611 255.599C46.5217 255.964 46.8679 256.26 47.2694 256.461L74.7694 270.211C75.1514 270.402 75.5728 270.502 76 270.502C76.4272 270.502 76.8486 270.402 77.2306 270.211L104.731 256.461C105.132 256.26 105.478 255.964 105.739 255.599C106 255.233 106.167 254.809 106.226 254.364L111.726 213.114C111.806 212.515 111.686 211.905 111.384 211.381C111.083 210.857 110.617 210.446 110.059 210.213ZM100.967 252.192L76 264.677L51.0334 252.192L46.0044 214.469L76 201.98L105.996 214.469L100.967 252.192ZM73.5938 216.916L59.8438 241.666C59.6686 241.982 59.5574 242.33 59.5165 242.689C59.4756 243.048 59.5058 243.411 59.6054 243.758C59.705 244.106 59.872 244.43 60.0969 244.713C60.3219 244.995 60.6003 245.231 60.9163 245.406C61.2322 245.581 61.5796 245.693 61.9386 245.733C62.2976 245.774 62.6611 245.744 63.0084 245.645C63.3557 245.545 63.6799 245.378 63.9627 245.153C64.2454 244.928 64.4811 244.65 64.6563 244.334L68.4375 237.5H83.5625L87.3438 244.334C87.5189 244.65 87.7546 244.928 88.0373 245.153C88.3201 245.378 88.6443 245.545 88.9916 245.645C89.3389 245.744 89.7024 245.774 90.0614 245.733C90.4204 245.693 90.7678 245.581 91.0838 245.406C91.3997 245.231 91.6781 244.995 91.9031 244.713C92.128 244.43 92.295 244.106 92.3946 243.758C92.4942 243.411 92.5244 243.048 92.4835 242.689C92.4426 242.33 92.3314 241.982 92.1562 241.666L78.4063 216.916C78.1684 216.486 77.8198 216.128 77.3967 215.879C76.9735 215.629 76.4912 215.498 76 215.498C75.5088 215.498 75.0265 215.629 74.6033 215.879C74.1802 216.128 73.8316 216.486 73.5938 216.916ZM80.4928 232H71.5072L76 223.912L80.4928 232Z" fill="#2ED573"/>
<path d="M47.9233 298H45.2869L49.304 286.364H52.4744L56.4858 298H53.8494L50.9347 289.023H50.8438L47.9233 298ZM47.7585 293.426H53.9858V295.347H47.7585V293.426ZM60.2614 292.955V298H57.8409V289.273H60.1477V290.812H60.25C60.4432 290.305 60.767 289.903 61.2216 289.608C61.6761 289.309 62.2273 289.159 62.875 289.159C63.4811 289.159 64.0095 289.292 64.4602 289.557C64.911 289.822 65.2614 290.201 65.5114 290.693C65.7614 291.182 65.8864 291.765 65.8864 292.443V298H63.4659V292.875C63.4697 292.341 63.3333 291.924 63.0568 291.625C62.7803 291.322 62.3996 291.17 61.9148 291.17C61.589 291.17 61.3011 291.241 61.0511 291.381C60.8049 291.521 60.6117 291.725 60.4716 291.994C60.3352 292.259 60.2652 292.58 60.2614 292.955ZM71.7259 301.455C70.9418 301.455 70.2694 301.347 69.7088 301.131C69.152 300.919 68.7088 300.629 68.3793 300.261C68.0497 299.894 67.8357 299.481 67.7372 299.023L69.9759 298.722C70.044 298.896 70.152 299.059 70.2997 299.21C70.4474 299.362 70.6425 299.483 70.8849 299.574C71.1312 299.669 71.4304 299.716 71.7827 299.716C72.3092 299.716 72.7429 299.587 73.0838 299.33C73.4285 299.076 73.6009 298.65 73.6009 298.051V296.455H73.4986C73.3925 296.697 73.2334 296.926 73.0213 297.142C72.8092 297.358 72.5365 297.534 72.2031 297.67C71.8698 297.807 71.4721 297.875 71.0099 297.875C70.3546 297.875 69.758 297.723 69.2202 297.42C68.6861 297.114 68.2599 296.646 67.9418 296.017C67.6274 295.384 67.4702 294.585 67.4702 293.619C67.4702 292.631 67.6312 291.805 67.9531 291.142C68.2751 290.479 68.7031 289.983 69.2372 289.653C69.7751 289.324 70.3641 289.159 71.0043 289.159C71.4929 289.159 71.902 289.242 72.2315 289.409C72.5611 289.572 72.8262 289.777 73.027 290.023C73.2315 290.265 73.3887 290.504 73.4986 290.739H73.5895V289.273H75.9929V298.085C75.9929 298.828 75.8111 299.449 75.4474 299.949C75.0838 300.449 74.58 300.824 73.9361 301.074C73.2959 301.328 72.5592 301.455 71.7259 301.455ZM71.777 296.057C72.1671 296.057 72.4967 295.96 72.7656 295.767C73.0384 295.57 73.2467 295.29 73.3906 294.926C73.5384 294.559 73.6122 294.119 73.6122 293.608C73.6122 293.097 73.5402 292.653 73.3963 292.278C73.2524 291.9 73.044 291.606 72.7713 291.398C72.4986 291.189 72.1671 291.085 71.777 291.085C71.3793 291.085 71.044 291.193 70.7713 291.409C70.4986 291.621 70.2921 291.917 70.152 292.295C70.0118 292.674 69.9418 293.112 69.9418 293.608C69.9418 294.112 70.0118 294.547 70.152 294.915C70.2959 295.278 70.5024 295.561 70.7713 295.761C71.044 295.958 71.3793 296.057 71.777 296.057ZM83.5156 294.284V289.273H85.9361V298H83.6122V296.415H83.5213C83.3243 296.926 82.9967 297.337 82.5384 297.648C82.0838 297.958 81.5289 298.114 80.8736 298.114C80.2902 298.114 79.777 297.981 79.3338 297.716C78.8906 297.451 78.544 297.074 78.294 296.585C78.0478 296.097 77.9228 295.511 77.919 294.83V289.273H80.3395V294.398C80.3433 294.913 80.4815 295.32 80.7543 295.619C81.027 295.919 81.3925 296.068 81.8509 296.068C82.1425 296.068 82.4152 296.002 82.669 295.869C82.9228 295.733 83.1274 295.532 83.2827 295.267C83.4418 295.002 83.5194 294.674 83.5156 294.284ZM90.2926 286.364V298H87.8722V286.364H90.2926ZM94.7202 298.165C94.1634 298.165 93.6671 298.068 93.2315 297.875C92.7959 297.678 92.4512 297.388 92.1974 297.006C91.9474 296.619 91.8224 296.138 91.8224 295.562C91.8224 295.078 91.9115 294.67 92.0895 294.341C92.2675 294.011 92.5099 293.746 92.8168 293.545C93.1236 293.345 93.4721 293.193 93.8622 293.091C94.2562 292.989 94.669 292.917 95.1009 292.875C95.6084 292.822 96.0175 292.773 96.3281 292.727C96.6387 292.678 96.8641 292.606 97.0043 292.511C97.1444 292.417 97.2145 292.277 97.2145 292.091V292.057C97.2145 291.697 97.1009 291.419 96.8736 291.222C96.6501 291.025 96.3319 290.926 95.919 290.926C95.4834 290.926 95.1368 291.023 94.8793 291.216C94.6217 291.405 94.4512 291.644 94.3679 291.932L92.1293 291.75C92.2429 291.22 92.4664 290.761 92.7997 290.375C93.133 289.985 93.563 289.686 94.0895 289.477C94.6198 289.265 95.2334 289.159 95.9304 289.159C96.4152 289.159 96.8793 289.216 97.3224 289.33C97.7694 289.443 98.1652 289.619 98.5099 289.858C98.8584 290.097 99.133 290.403 99.3338 290.778C99.5346 291.15 99.6349 291.595 99.6349 292.114V298H97.3395V296.79H97.2713C97.1312 297.062 96.9437 297.303 96.7088 297.511C96.474 297.716 96.1918 297.877 95.8622 297.994C95.5327 298.108 95.152 298.165 94.7202 298.165ZM95.4134 296.494C95.7694 296.494 96.0838 296.424 96.3565 296.284C96.6293 296.14 96.8433 295.947 96.9986 295.705C97.1539 295.462 97.2315 295.187 97.2315 294.881V293.955C97.1558 294.004 97.0516 294.049 96.919 294.091C96.7902 294.129 96.6444 294.165 96.4815 294.199C96.3187 294.229 96.1558 294.258 95.9929 294.284C95.83 294.307 95.6823 294.328 95.5497 294.347C95.2656 294.388 95.0175 294.455 94.8054 294.545C94.5933 294.636 94.4285 294.759 94.3111 294.915C94.1937 295.066 94.1349 295.256 94.1349 295.483C94.1349 295.812 94.2543 296.064 94.4929 296.239C94.7353 296.409 95.0421 296.494 95.4134 296.494ZM101.513 298V289.273H103.859V290.795H103.95C104.109 290.254 104.376 289.845 104.751 289.568C105.126 289.288 105.558 289.148 106.047 289.148C106.168 289.148 106.299 289.155 106.439 289.17C106.579 289.186 106.702 289.206 106.808 289.233V291.381C106.695 291.347 106.537 291.316 106.337 291.29C106.136 291.263 105.952 291.25 105.786 291.25C105.429 291.25 105.111 291.328 104.831 291.483C104.554 291.634 104.335 291.847 104.172 292.119C104.013 292.392 103.933 292.706 103.933 293.062V298H101.513Z" fill="white"/>
<rect x="17" y="173" width="118" height="146" rx="7" stroke="#82E6AB" stroke-width="2"/>
<rect x="0.5" y="0.5" width="151" height="335" rx="7.5" stroke="#2ED573" stroke-dasharray="10 5"/>
</svg>
